<svg version="1.1" id="Layer_1" xmlns="http://www.w3.org/2000/svg" xmlns:xlink="http://www.w3.org/1999/xlink" x="0px" y="0px"
	 width="100%" viewBox="0 0 1024 1024" enable-background="new 0 0 1024 1024" xml:space="preserve">
<path fill="#000000" opacity="1.000000" stroke="none" 
	d="
M691.587097,553.533447 
	C671.619873,580.891846 645.836548,600.256042 615.202332,613.419006 
	C600.943176,619.545837 586.246033,624.308533 571.176636,628.035706 
	C567.254089,629.005920 565.356628,628.036499 563.973145,624.399963 
	C559.650574,613.038818 555.268921,601.695679 550.620544,590.465454 
	C548.920898,586.359192 549.772644,584.664734 554.055664,583.307190 
	C577.619202,575.838013 598.639465,564.054749 615.660461,545.794556 
	C636.037231,523.934204 646.453064,497.942780 648.028992,468.194214 
	C648.296021,463.154327 646.295837,461.963928 641.691223,461.987671 
	C613.037231,462.135406 584.382202,462.067169 555.727478,462.089142 
	C548.806641,462.094452 548.742859,462.079529 548.744446,455.181854 
	C548.754578,411.033569 548.769775,366.885254 548.790344,322.736969 
	C548.793579,315.798492 548.828918,315.773346 555.743713,315.774139 
	C608.721680,315.780212 661.699707,315.788208 714.677673,315.797913 
	C721.688782,315.799194 721.548706,315.805542 721.563538,323.059845 
	C721.652527,366.701080 721.992188,410.342590 721.877686,453.983032 
	C721.810181,479.728638 717.128296,504.641907 706.288818,528.194214 
	C702.238342,536.995300 697.382324,545.327576 691.587097,553.533447 
z"/>
<path fill="#000000" opacity="1.000000" stroke="none" 
	d="
M303.966125,383.000000 
	C303.969452,362.341156 304.071045,342.181458 303.901733,322.024048 
	C303.862549,317.359985 305.254211,315.644348 310.166779,315.658661 
	C363.645721,315.814514 417.125275,315.759552 470.604645,315.775116 
	C477.216370,315.777069 477.302429,315.913818 477.300354,322.474640 
	C477.286713,365.957855 477.496552,409.442535 477.201874,452.923828 
	C476.971497,486.916748 469.032318,518.914978 450.290802,547.707336 
	C430.676514,577.840576 403.343201,598.653259 370.765991,613.060486 
	C356.408356,619.410095 341.462189,623.960327 326.322205,627.989746 
	C322.628601,628.972778 320.869598,627.937622 319.592621,624.427124 
	C315.380585,612.847778 311.046356,601.308777 306.496857,589.858459 
	C304.943420,585.948547 306.322571,584.583435 309.888763,583.430847 
	C326.991852,577.903564 342.890320,569.944458 356.939056,558.656921 
	C383.545959,537.279663 398.681000,509.462921 402.881165,475.643677 
	C403.209167,473.002380 403.343201,470.335297 403.721588,467.702362 
	C404.361877,463.247528 402.401703,461.923950 398.091583,461.961975 
	C377.434387,462.144196 356.775055,462.083801 336.116486,462.108734 
	C327.453217,462.119171 318.783203,461.926361 310.129364,462.217041 
	C305.407318,462.375610 303.701874,460.871063 303.751526,455.970734 
	C303.996307,431.815582 303.925354,407.657227 303.966125,383.000000 
z"/>
</svg>